<svg width="207" height="68" viewBox="0 0 207 68" fill="none" xmlns="http://www.w3.org/2000/svg">
<path d="M36.72 44.0023C36.816 44.0023 36.864 44.0983 36.864 44.2903C36.864 44.4823 36.816 44.5783 36.72 44.5783C35.824 44.5783 35.12 44.5623 34.608 44.5303L31.296 44.4823L28.176 44.5303C27.664 44.5623 26.944 44.5783 26.016 44.5783C25.92 44.5783 25.856 44.4823 25.824 44.2903C25.824 44.0983 25.888 44.0023 26.016 44.0023C27.136 44.0023 27.968 43.9223 28.512 43.7623C29.056 43.5703 29.424 43.2503 29.616 42.8023C29.808 42.3543 29.872 41.6503 29.808 40.6903L29.136 17.9863L18.864 44.2423C18.864 44.3703 18.752 44.4343 18.528 44.4343C18.336 44.4343 18.208 44.3543 18.144 44.1943L7.2 18.5623L7.152 18.4183L7.056 39.3463C7.056 41.0103 7.312 42.2103 7.824 42.9463C8.336 43.6503 9.216 44.0023 10.464 44.0023C10.56 44.0023 10.608 44.0983 10.608 44.2903C10.64 44.4823 10.592 44.5783 10.464 44.5783C9.76 44.5783 9.216 44.5623 8.832 44.5303L6.384 44.4823L4.128 44.5303C3.712 44.5623 3.12 44.5783 2.352 44.5783C2.256 44.5783 2.208 44.4823 2.208 44.2903C2.208 44.0983 2.24 44.0023 2.304 44.0023C3.552 44.0023 4.464 43.6343 5.04 42.8983C5.648 42.1623 5.952 40.9783 5.952 39.3463L6.096 16.6903C5.168 15.6663 3.936 15.1543 2.4 15.1543C2.304 15.1543 2.256 15.0583 2.256 14.8663C2.256 14.6743 2.288 14.5783 2.352 14.5783L3.888 14.6263C4.24 14.6583 4.704 14.6743 5.28 14.6743C5.92 14.6743 6.432 14.6583 6.816 14.6263C7.232 14.5943 7.552 14.5783 7.776 14.5783C8.16 14.5783 8.48 14.7383 8.736 15.0583C9.024 15.3783 9.408 16.0503 9.888 17.0743L19.584 39.7783L28.944 15.7783C29.04 15.4263 29.232 15.1383 29.52 14.9143C29.808 14.6903 30.112 14.5783 30.432 14.5783C30.624 14.5783 30.912 14.5943 31.296 14.6263C31.68 14.6583 32.112 14.6743 32.592 14.6743L34.752 14.6263C35.104 14.5943 35.584 14.5783 36.192 14.5783C36.288 14.5783 36.336 14.6743 36.336 14.8663C36.336 15.0583 36.288 15.1543 36.192 15.1543C34.72 15.1543 33.648 15.3783 32.976 15.8263C32.336 16.2423 32.064 17.0903 32.16 18.3703L32.832 40.6903C32.896 41.6823 33.024 42.4023 33.216 42.8503C33.408 43.2983 33.76 43.6023 34.272 43.7623C34.784 43.9223 35.6 44.0023 36.72 44.0023ZM47.8054 45.2503C46.1414 45.2503 44.6854 44.8503 43.4374 44.0503C42.2214 43.2183 41.2774 42.0983 40.6054 40.6903C39.9334 39.2823 39.5974 37.6983 39.5974 35.9383C39.5974 33.9543 39.9974 32.1623 40.7974 30.5623C41.5974 28.9623 42.7014 27.7143 44.1094 26.8183C45.5494 25.8903 47.1814 25.4263 49.0054 25.4263C51.4374 25.4263 53.4054 26.2423 54.9094 27.8743C56.4454 29.4743 57.2134 31.6983 57.2134 34.5463C57.2134 36.7223 56.7814 38.6263 55.9174 40.2583C55.0534 41.8903 53.9014 43.1383 52.4614 44.0023C51.0214 44.8343 49.4694 45.2503 47.8054 45.2503ZM49.2454 44.0503C50.8134 44.0503 52.1094 43.3943 53.1334 42.0823C54.1574 40.7703 54.6694 38.9943 54.6694 36.7543C54.6694 35.0263 54.3654 33.3783 53.7574 31.8103C53.1814 30.2423 52.3494 28.9783 51.2614 28.0183C50.2054 27.0583 49.0054 26.5783 47.6614 26.5783C46.0934 26.5783 44.7814 27.2183 43.7254 28.4983C42.6694 29.7783 42.1414 31.5383 42.1414 33.7783C42.1414 35.4743 42.4454 37.1223 43.0534 38.7223C43.6614 40.2903 44.5094 41.5703 45.5974 42.5623C46.6854 43.5543 47.9014 44.0503 49.2454 44.0503ZM71.6498 25.5703C72.3858 25.5703 73.0898 25.8103 73.7618 26.2903C74.4658 26.7703 74.8178 27.3143 74.8178 27.9223C74.8178 28.3703 74.6578 28.7543 74.3378 29.0743C74.0178 29.3623 73.6498 29.5063 73.2338 29.5063C72.8818 29.5063 72.5938 29.4423 72.3698 29.3143C72.1458 29.1863 71.9058 29.0103 71.6498 28.7863C71.4898 28.6263 71.3138 28.4983 71.1218 28.4023C70.9618 28.2743 70.7698 28.2103 70.5458 28.2103C69.8098 28.2103 69.0898 29.1223 68.3858 30.9463C67.6818 32.7703 67.0898 34.9623 66.6098 37.5223C66.1618 40.0503 65.9218 42.2903 65.8898 44.2423C65.8898 44.4663 65.7458 44.6423 65.4578 44.7703C65.2018 44.8983 64.8338 44.9623 64.3538 44.9623C63.8738 44.9623 63.5538 44.9303 63.3938 44.8663C63.2338 44.8343 63.1378 44.7703 63.1058 44.6743C63.1058 44.5463 63.1218 44.1943 63.1538 43.6183C63.1858 43.0103 63.2018 42.1463 63.2018 41.0263L63.2978 32.1463C63.2978 29.0423 62.6898 27.4903 61.4738 27.4903C60.5138 27.4903 59.4898 28.0663 58.4017 29.2183L58.3057 29.2663C58.2097 29.2663 58.1297 29.2183 58.0657 29.1223C57.9697 29.0263 57.9377 28.9463 57.9697 28.8823C58.7697 27.8583 59.6338 27.0583 60.5618 26.4823C61.5218 25.9063 62.4178 25.6183 63.2498 25.6183C64.1458 25.6183 64.8178 26.0663 65.2658 26.9623C65.7458 27.8583 65.9698 29.5543 65.9378 32.0503V37.6183C66.4178 34.2583 67.1538 31.4103 68.1458 29.0743C69.1378 26.7383 70.3058 25.5703 71.6498 25.5703ZM91.7486 41.9383C91.8446 41.9383 91.9406 41.9863 92.0366 42.0823C92.1646 42.1783 92.1966 42.2743 92.1326 42.3703C90.0206 44.2263 87.6686 45.1543 85.0766 45.1543C83.2846 45.1543 81.7486 44.7383 80.4686 43.9063C79.1886 43.0743 78.2286 41.9703 77.5886 40.5943C76.9486 39.2183 76.6286 37.7463 76.6286 36.1783C76.6286 34.3223 77.0606 32.5783 77.9246 30.9463C78.7886 29.2823 79.9726 27.9543 81.4766 26.9623C83.0126 25.9383 84.7406 25.4263 86.6606 25.4263C87.9406 25.4263 88.9326 25.6663 89.6366 26.1463C90.3726 26.5943 90.7406 27.2183 90.7406 28.0183C90.7086 29.4263 89.6206 30.7223 87.4766 31.9063C85.3326 33.0583 82.6926 33.8583 79.5566 34.3063C79.6206 37.0903 80.2606 39.3303 81.4766 41.0263C82.7246 42.6903 84.4846 43.5223 86.7566 43.5223C87.5886 43.5223 88.4366 43.3943 89.3006 43.1383C90.1646 42.8823 90.9486 42.4823 91.6526 41.9383H91.7486ZM84.5966 26.7223C82.9646 26.7223 81.7326 27.3623 80.9006 28.6423C80.0686 29.9223 79.6206 31.5863 79.5566 33.6343C84.7086 32.7703 87.2846 31.1223 87.2846 28.6903C87.2846 28.0503 87.0446 27.5703 86.5646 27.2503C86.0846 26.8983 85.4286 26.7223 84.5966 26.7223ZM123.872 44.0023C123.968 44.0023 124.016 44.0983 124.016 44.2903C124.016 44.4823 123.968 44.5783 123.872 44.5783C123.328 44.5783 122.512 44.5463 121.424 44.4823C120.144 44.4183 119.152 44.3863 118.448 44.3863C117.744 44.3863 116.816 44.4183 115.664 44.4823C114.64 44.5463 113.856 44.5783 113.312 44.5783C113.184 44.5783 113.12 44.4823 113.12 44.2903C113.12 44.0983 113.184 44.0023 113.312 44.0023C114.464 44.0023 115.28 43.8903 115.76 43.6663C116.24 43.4423 116.48 43.0583 116.48 42.5143C116.48 42.0983 116.32 41.4423 116 40.5463L111.68 28.7383H103.664L99.7759 38.2423C99.1679 39.7463 98.8639 40.9143 98.8639 41.7463C98.8639 42.6103 99.1679 43.2023 99.7759 43.5223C100.416 43.8423 101.36 44.0023 102.608 44.0023C102.736 44.0023 102.8 44.0983 102.8 44.2903C102.8 44.4823 102.72 44.5783 102.56 44.5783C102.176 44.5783 101.408 44.5463 100.256 44.4823C98.9119 44.4183 97.8879 44.3863 97.1839 44.3863C96.4159 44.3863 95.5199 44.4183 94.4959 44.4823C93.5999 44.5463 92.8639 44.5783 92.2879 44.5783C92.1599 44.5783 92.0959 44.4823 92.0959 44.2903C92.0959 44.0983 92.1599 44.0023 92.2879 44.0023C93.3119 44.0023 94.3199 43.5863 95.3119 42.7543C96.3359 41.9223 97.2639 40.5623 98.0959 38.6743L108.464 14.0983C108.528 14.0023 108.672 13.9543 108.896 13.9543C109.184 13.9543 109.376 14.0183 109.472 14.1463L119.168 40.5463C119.552 41.5383 119.888 42.2583 120.176 42.7063C120.496 43.1543 120.928 43.4903 121.472 43.7143C122.016 43.9063 122.816 44.0023 123.872 44.0023ZM104.096 27.7303H111.296L107.888 18.4663L104.096 27.7303ZM156.293 44.0023C156.421 44.0023 156.485 44.0983 156.485 44.2903C156.485 44.4823 156.421 44.5783 156.293 44.5783H150.677C149.845 44.5783 148.325 43.2023 146.117 40.4503C143.941 37.6983 141.317 33.8423 138.245 28.8823C137.253 29.1703 136.197 29.3143 135.077 29.3143C134.597 29.3143 134.037 29.2823 133.397 29.2183L133.301 40.6903C133.333 41.6823 133.445 42.4023 133.637 42.8503C133.829 43.2983 134.181 43.6023 134.693 43.7623C135.237 43.9223 136.101 44.0023 137.285 44.0023C137.413 44.0023 137.477 44.0983 137.477 44.2903C137.477 44.4823 137.429 44.5783 137.333 44.5783C136.341 44.5783 135.557 44.5623 134.981 44.5303L131.717 44.4823L128.405 44.5303C127.829 44.5623 127.045 44.5783 126.053 44.5783C125.925 44.5783 125.861 44.4823 125.861 44.2903C125.861 44.0983 125.925 44.0023 126.053 44.0023C127.269 44.0023 128.165 43.9223 128.741 43.7623C129.317 43.5703 129.717 43.2503 129.941 42.8023C130.165 42.3543 130.293 41.6503 130.325 40.6903V18.4663C130.293 17.5063 130.181 16.8023 129.989 16.3543C129.797 15.9063 129.413 15.6023 128.837 15.4423C128.293 15.2503 127.413 15.1543 126.197 15.1543C126.069 15.1543 126.005 15.0583 126.005 14.8663C126.005 14.6743 126.069 14.5783 126.197 14.5783L128.549 14.6263C129.893 14.6903 130.965 14.7223 131.765 14.7223C132.437 14.7223 133.029 14.7063 133.541 14.6743C134.085 14.6423 134.517 14.6103 134.837 14.5783C135.765 14.4823 136.581 14.4343 137.285 14.4343C139.941 14.4343 141.973 14.9623 143.381 16.0183C144.789 17.0743 145.493 18.5463 145.493 20.4343C145.493 21.9383 145.045 23.3623 144.149 24.7063C143.285 26.0183 142.101 27.0903 140.597 27.9223C143.317 32.0183 145.573 35.2183 147.365 37.5223C149.189 39.8263 150.805 41.4903 152.213 42.5143C153.621 43.5063 154.981 44.0023 156.293 44.0023ZM133.301 28.0663C134.165 28.1623 135.029 28.2103 135.893 28.2103C138.133 28.2103 139.749 27.7303 140.741 26.7703C141.733 25.8103 142.229 24.2423 142.229 22.0663C142.229 19.6343 141.701 17.8743 140.645 16.7863C139.589 15.6983 138.165 15.1543 136.373 15.1543C135.477 15.1543 134.837 15.2183 134.453 15.3463C134.069 15.4423 133.781 15.7303 133.589 16.2103C133.429 16.6583 133.333 17.4423 133.301 18.5623V28.0663ZM160.614 44.5783C160.486 44.5783 160.422 44.4823 160.422 44.2903C160.422 44.0983 160.47 44.0023 160.566 44.0023C161.782 44.0023 162.678 43.9223 163.254 43.7623C163.83 43.6023 164.214 43.2983 164.406 42.8503C164.63 42.3703 164.726 41.6503 164.694 40.6903V18.4663C164.694 17.6023 164.598 16.9623 164.406 16.5463C164.246 16.0983 163.942 15.7943 163.494 15.6343C163.046 15.4743 162.342 15.3943 161.382 15.3943H160.134C158.054 15.3943 156.502 15.9383 155.478 17.0263C154.486 18.0823 153.83 19.8423 153.51 22.3063C153.51 22.3703 153.446 22.4023 153.318 22.4023C153.062 22.4023 152.934 22.3543 152.934 22.2583C153.094 21.2023 153.334 18.2903 153.654 13.5223C153.654 13.4263 153.734 13.3783 153.894 13.3783C153.99 13.3783 154.07 13.3943 154.134 13.4263C154.23 13.4583 154.278 13.5063 154.278 13.5703C154.278 14.2423 154.998 14.5783 156.438 14.5783C159.03 14.6743 162.278 14.7223 166.182 14.7223C167.942 14.7223 169.91 14.6903 172.086 14.6263L175.446 14.5783C176.502 14.5783 177.27 14.4983 177.75 14.3383C178.23 14.1783 178.534 13.8583 178.662 13.3783C178.726 13.2823 178.838 13.2503 178.998 13.2823C179.19 13.2823 179.27 13.3463 179.238 13.4743C179.142 14.7543 179.046 16.3543 178.95 18.2743C178.854 20.1943 178.822 21.5063 178.854 22.2103C178.854 22.3063 178.742 22.3543 178.518 22.3543C178.326 22.3543 178.23 22.3063 178.23 22.2103C178.23 19.7783 177.766 18.0343 176.838 16.9783C175.91 15.9223 174.342 15.3943 172.134 15.3943H170.838C169.91 15.3943 169.222 15.4903 168.774 15.6823C168.358 15.8423 168.07 16.1463 167.91 16.5943C167.782 17.0103 167.718 17.6663 167.718 18.5623L167.814 40.6903C167.846 41.6823 167.958 42.4023 168.15 42.8503C168.342 43.2983 168.71 43.6023 169.254 43.7623C169.798 43.9223 170.694 44.0023 171.942 44.0023C172.006 44.0023 172.038 44.0983 172.038 44.2903C172.038 44.4823 172.006 44.5783 171.942 44.5783C170.95 44.5783 170.182 44.5623 169.638 44.5303L166.23 44.4823L162.918 44.5303C162.374 44.5623 161.606 44.5783 160.614 44.5783Z" fill="#D05656"/>
<path d="M84.154 59.922C84.1633 59.9127 84.1773 59.908 84.196 59.908C84.224 59.908 84.252 59.9267 84.28 59.964C84.3173 59.992 84.3313 60.0153 84.322 60.034C84.0233 60.4167 83.762 60.6967 83.538 60.874C83.3233 61.042 83.0947 61.126 82.852 61.126C82.3293 61.126 82.068 60.7573 82.068 60.02L82.11 57.528C82.1193 56.4827 81.83 55.96 81.242 55.96C80.8967 55.96 80.5793 56.1513 80.29 56.534C80.0007 56.9167 79.7673 57.4813 79.59 58.228C79.4127 58.9747 79.3193 59.866 79.31 60.902C79.31 60.9673 79.268 61.0187 79.184 61.056C79.1093 61.0933 79.002 61.112 78.862 61.112C78.7127 61.112 78.61 61.1027 78.554 61.084C78.5073 61.0747 78.4793 61.056 78.47 61.028C78.47 60.9907 78.4747 60.8647 78.484 60.65C78.4933 60.426 78.498 60.1973 78.498 59.964L78.568 52.614V52.586C78.568 52.5207 78.526 52.488 78.442 52.488H75.572C75.3013 52.488 75.1007 52.516 74.97 52.572C74.8487 52.6187 74.7647 52.7073 74.718 52.838C74.6807 52.9593 74.662 53.1507 74.662 53.412L74.69 59.866C74.6993 60.1553 74.732 60.3653 74.788 60.496C74.844 60.6267 74.9513 60.7153 75.11 60.762C75.2687 60.8087 75.53 60.832 75.894 60.832C75.9313 60.832 75.95 60.86 75.95 60.916C75.95 60.972 75.9313 61 75.894 61C75.6047 61 75.3807 60.9953 75.222 60.986L74.228 60.972L73.262 60.986C73.094 60.9953 72.8653 61 72.576 61C72.5387 61 72.52 60.972 72.52 60.916C72.52 60.86 72.5387 60.832 72.576 60.832C72.9307 60.832 73.192 60.8087 73.36 60.762C73.528 60.7153 73.64 60.6267 73.696 60.496C73.7613 60.356 73.7893 60.146 73.78 59.866V53.384C73.78 53.132 73.752 52.9453 73.696 52.824C73.6493 52.6933 73.5607 52.6047 73.43 52.558C73.2993 52.5113 73.094 52.488 72.814 52.488H72.45C71.8433 52.488 71.3907 52.642 71.092 52.95C70.8027 53.258 70.6207 53.7667 70.546 54.476C70.5367 54.504 70.5087 54.518 70.462 54.518C70.434 54.518 70.406 54.5133 70.378 54.504C70.3593 54.4853 70.3547 54.4667 70.364 54.448C70.4013 54.1213 70.4667 53.286 70.56 51.942C70.56 51.914 70.588 51.9 70.644 51.9C70.7093 51.9 70.742 51.914 70.742 51.942C70.7233 52.1473 70.9333 52.25 71.372 52.25C72.128 52.278 73.0753 52.292 74.214 52.292C75.3807 52.292 76.3233 52.2687 77.042 52.222C77.6487 52.2033 78.1247 52.0867 78.47 51.872C78.8247 51.648 79.058 51.3027 79.17 50.836C79.17 50.808 79.198 50.794 79.254 50.794C79.282 50.794 79.3053 50.7987 79.324 50.808C79.352 50.8173 79.366 50.8313 79.366 50.85L79.324 58.55C79.492 57.57 79.7767 56.8047 80.178 56.254C80.5887 55.694 81.0833 55.414 81.662 55.414C82.0727 55.414 82.3807 55.5633 82.586 55.862C82.7913 56.1513 82.8893 56.618 82.88 57.262L82.866 59.754C82.8567 60.2953 82.9873 60.566 83.258 60.566C83.4727 60.566 83.7713 60.3513 84.154 59.922ZM89.0628 60.23C89.0908 60.23 89.1188 60.244 89.1468 60.272C89.1841 60.3 89.1934 60.328 89.1748 60.356C88.5588 60.8973 87.8728 61.168 87.1168 61.168C86.5941 61.168 86.1461 61.0467 85.7728 60.804C85.3994 60.5613 85.1194 60.2393 84.9328 59.838C84.7461 59.4367 84.6528 59.0073 84.6528 58.55C84.6528 58.0087 84.7788 57.5 85.0308 57.024C85.2828 56.5387 85.6281 56.1513 86.0667 55.862C86.5148 55.5633 87.0188 55.414 87.5788 55.414C87.9521 55.414 88.2414 55.484 88.4468 55.624C88.6614 55.7547 88.7688 55.9367 88.7688 56.17C88.7594 56.5807 88.4421 56.9587 87.8167 57.304C87.1914 57.64 86.4214 57.8733 85.5068 58.004C85.5254 58.816 85.7121 59.4693 86.0667 59.964C86.4308 60.4493 86.9441 60.692 87.6068 60.692C87.8494 60.692 88.0968 60.6547 88.3488 60.58C88.6008 60.5053 88.8294 60.3887 89.0348 60.23H89.0628ZM86.9768 55.792C86.5008 55.792 86.1414 55.9787 85.8988 56.352C85.6561 56.7253 85.5254 57.2107 85.5068 57.808C87.0094 57.556 87.7608 57.0753 87.7608 56.366C87.7608 56.1793 87.6908 56.0393 87.5508 55.946C87.4108 55.8433 87.2194 55.792 86.9768 55.792ZM99.7113 58.914C99.7113 58.886 99.7346 58.872 99.7813 58.872C99.8093 58.872 99.8373 58.8813 99.8653 58.9C99.8933 58.9093 99.9026 58.9233 99.8933 58.942C99.8093 59.4273 99.7673 60.0433 99.7673 60.79C99.7673 60.8647 99.7533 60.9207 99.7253 60.958C99.6973 60.986 99.6413 61 99.5573 61H93.2853C93.2479 61 93.2293 60.972 93.2293 60.916C93.2293 60.86 93.2433 60.832 93.2713 60.832C93.6073 60.832 93.8499 60.8087 93.9993 60.762C94.1579 60.7153 94.2653 60.6267 94.3213 60.496C94.3773 60.356 94.4053 60.146 94.4053 59.866V53.384C94.3866 53.104 94.3493 52.8987 94.2933 52.768C94.2373 52.6373 94.1299 52.5487 93.9713 52.502C93.8219 52.446 93.5839 52.418 93.2573 52.418C93.2293 52.418 93.2153 52.39 93.2153 52.334C93.2153 52.278 93.2246 52.25 93.2433 52.25H99.1653C99.2026 52.25 99.2259 52.2593 99.2353 52.278C99.2539 52.2967 99.2633 52.3293 99.2633 52.376C99.2913 52.8893 99.3053 53.468 99.3053 54.112C99.3053 54.1493 99.2773 54.168 99.2213 54.168C99.1653 54.168 99.1373 54.1493 99.1373 54.112C99.0906 53.6173 98.9319 53.2207 98.6613 52.922C98.3999 52.614 98.0593 52.46 97.6393 52.46H96.3793C96.0526 52.46 95.8146 52.4833 95.6653 52.53C95.5159 52.5767 95.4133 52.6653 95.3573 52.796C95.3106 52.9173 95.2826 53.118 95.2733 53.398V56.296H97.4573C97.8679 56.296 98.1573 56.226 98.3253 56.086C98.4933 55.9367 98.5726 55.68 98.5633 55.316C98.5633 55.2787 98.5913 55.26 98.6473 55.26C98.7033 55.26 98.7266 55.2787 98.7173 55.316V55.778V56.45L98.7313 57.066C98.7499 57.346 98.7593 57.5747 98.7593 57.752C98.7593 57.7893 98.7266 57.808 98.6613 57.808C98.6053 57.808 98.5773 57.7893 98.5773 57.752C98.5773 57.332 98.4839 57.0333 98.2973 56.856C98.1199 56.6787 97.8166 56.59 97.3873 56.59H95.2733V59.81C95.2733 60.0807 95.3013 60.2813 95.3573 60.412C95.4133 60.5333 95.5159 60.6173 95.6653 60.664C95.8146 60.7107 96.0479 60.734 96.3653 60.734H98.0453C98.4373 60.734 98.7826 60.5707 99.0813 60.244C99.3799 59.908 99.5899 59.4647 99.7113 58.914ZM103.669 61.182C103.174 61.182 102.764 61 102.437 60.636C102.12 60.2627 101.961 59.7867 101.961 59.208C101.961 58.9373 101.994 58.6713 102.059 58.41C102.124 58.1487 102.222 57.808 102.353 57.388C102.418 57.192 102.493 56.9493 102.577 56.66C102.605 56.5853 102.619 56.5247 102.619 56.478C102.619 56.366 102.54 56.31 102.381 56.31H101.569C101.298 56.31 101.098 56.324 100.967 56.352C100.846 56.38 100.757 56.4453 100.701 56.548C100.645 56.6413 100.598 56.7953 100.561 57.01C100.561 57.0473 100.528 57.066 100.463 57.066C100.435 57.066 100.412 57.0613 100.393 57.052C100.374 57.0333 100.37 57.01 100.379 56.982C100.463 56.5433 100.542 56.2353 100.617 56.058C100.692 55.8713 100.799 55.7453 100.939 55.68C101.088 55.6147 101.322 55.582 101.639 55.582H103.011C103.104 55.582 103.156 55.5913 103.165 55.61C103.184 55.6287 103.179 55.6753 103.151 55.75C102.834 56.8607 102.675 57.808 102.675 58.592C102.675 59.236 102.796 59.7167 103.039 60.034C103.291 60.342 103.613 60.496 104.005 60.496C104.369 60.496 104.691 60.3747 104.971 60.132C105.26 59.8893 105.484 59.572 105.643 59.18C105.802 58.788 105.881 58.3773 105.881 57.948C105.881 57.64 105.839 57.388 105.755 57.192C105.68 56.996 105.596 56.8513 105.503 56.758C105.419 56.6647 105.307 56.5667 105.167 56.464C104.859 56.268 104.705 56.0627 104.705 55.848C104.705 55.7173 104.756 55.6193 104.859 55.554C104.962 55.4887 105.078 55.456 105.209 55.456C105.564 55.456 105.825 55.6893 105.993 56.156C106.17 56.6227 106.259 57.1407 106.259 57.71C106.259 58.41 106.133 59.026 105.881 59.558C105.629 60.0807 105.302 60.482 104.901 60.762C104.509 61.042 104.098 61.182 103.669 61.182ZM111.703 60.23C111.731 60.23 111.759 60.244 111.787 60.272C111.825 60.3 111.834 60.328 111.815 60.356C111.199 60.8973 110.513 61.168 109.757 61.168C109.235 61.168 108.787 61.0467 108.413 60.804C108.04 60.5613 107.76 60.2393 107.573 59.838C107.387 59.4367 107.293 59.0073 107.293 58.55C107.293 58.0087 107.419 57.5 107.671 57.024C107.923 56.5387 108.269 56.1513 108.707 55.862C109.155 55.5633 109.659 55.414 110.219 55.414C110.593 55.414 110.882 55.484 111.087 55.624C111.302 55.7547 111.409 55.9367 111.409 56.17C111.4 56.5807 111.083 56.9587 110.457 57.304C109.832 57.64 109.062 57.8733 108.147 58.004C108.166 58.816 108.353 59.4693 108.707 59.964C109.071 60.4493 109.585 60.692 110.247 60.692C110.49 60.692 110.737 60.6547 110.989 60.58C111.241 60.5053 111.47 60.3887 111.675 60.23H111.703ZM109.617 55.792C109.141 55.792 108.782 55.9787 108.539 56.352C108.297 56.7253 108.166 57.2107 108.147 57.808C109.65 57.556 110.401 57.0753 110.401 56.366C110.401 56.1793 110.331 56.0393 110.191 55.946C110.051 55.8433 109.86 55.792 109.617 55.792ZM115.781 55.456C115.995 55.456 116.201 55.526 116.397 55.666C116.602 55.806 116.705 55.9647 116.705 56.142C116.705 56.2727 116.658 56.3847 116.565 56.478C116.471 56.562 116.364 56.604 116.243 56.604C116.14 56.604 116.056 56.5853 115.991 56.548C115.925 56.5107 115.855 56.4593 115.781 56.394C115.734 56.3473 115.683 56.31 115.627 56.282C115.58 56.2447 115.524 56.226 115.459 56.226C115.244 56.226 115.034 56.492 114.829 57.024C114.623 57.556 114.451 58.1953 114.311 58.942C114.18 59.6793 114.11 60.3327 114.101 60.902C114.101 60.9673 114.059 61.0187 113.975 61.056C113.9 61.0933 113.793 61.112 113.653 61.112C113.513 61.112 113.419 61.1027 113.373 61.084C113.326 61.0747 113.298 61.056 113.289 61.028C113.289 60.9907 113.293 60.888 113.303 60.72C113.312 60.5427 113.317 60.2907 113.317 59.964L113.345 57.374C113.345 56.4687 113.167 56.016 112.813 56.016C112.533 56.016 112.234 56.184 111.917 56.52L111.889 56.534C111.861 56.534 111.837 56.52 111.819 56.492C111.791 56.464 111.781 56.4407 111.791 56.422C112.024 56.1233 112.276 55.89 112.547 55.722C112.827 55.554 113.088 55.47 113.331 55.47C113.592 55.47 113.788 55.6007 113.919 55.862C114.059 56.1233 114.124 56.618 114.115 57.346V58.97C114.255 57.99 114.469 57.1593 114.759 56.478C115.048 55.7967 115.389 55.456 115.781 55.456ZM122.253 55.484C122.412 55.484 122.514 55.4933 122.561 55.512C122.617 55.5213 122.65 55.54 122.659 55.568L122.631 56.632L122.603 61.98C122.584 62.8573 122.346 63.5667 121.889 64.108C121.441 64.6587 120.825 64.934 120.041 64.934C119.546 64.934 119.131 64.8313 118.795 64.626C118.468 64.43 118.305 64.1873 118.305 63.898C118.305 63.73 118.342 63.6087 118.417 63.534C118.492 63.4593 118.585 63.422 118.697 63.422C118.818 63.422 118.916 63.4593 118.991 63.534C119.066 63.6087 119.154 63.7207 119.257 63.87C119.425 64.1127 119.598 64.2993 119.775 64.43C119.952 64.57 120.204 64.64 120.531 64.64C120.932 64.64 121.25 64.472 121.483 64.136C121.716 63.8 121.828 63.1933 121.819 62.316V58.116C121.642 59.0773 121.348 59.8287 120.937 60.37C120.536 60.9113 120.046 61.182 119.467 61.182C118.608 61.182 118.207 60.566 118.263 59.334L118.333 56.842C118.342 56.3007 118.207 56.03 117.927 56.03C117.712 56.03 117.418 56.2493 117.045 56.688C117.026 56.7067 117.008 56.716 116.989 56.716C116.961 56.716 116.938 56.702 116.919 56.674C116.891 56.6367 116.882 56.604 116.891 56.576C117.171 56.2027 117.428 55.9273 117.661 55.75C117.904 55.5633 118.151 55.47 118.403 55.47C118.898 55.47 119.14 55.8433 119.131 56.59L119.047 59.068C119.019 60.1133 119.299 60.636 119.887 60.636C120.242 60.636 120.564 60.4447 120.853 60.062C121.142 59.6793 121.371 59.1333 121.539 58.424C121.716 57.7147 121.814 56.884 121.833 55.932V55.68C121.833 55.624 121.87 55.5773 121.945 55.54C122.02 55.5027 122.122 55.484 122.253 55.484ZM130.286 59.922C130.295 59.9127 130.309 59.908 130.328 59.908C130.356 59.908 130.384 59.9267 130.412 59.964C130.449 59.992 130.463 60.0153 130.454 60.034C130.155 60.4167 129.894 60.6967 129.67 60.874C129.455 61.042 129.227 61.126 128.984 61.126C128.723 61.126 128.522 61.0327 128.382 60.846C128.251 60.65 128.191 60.3747 128.2 60.02L128.228 58.424C127.939 59.2733 127.575 59.9453 127.136 60.44C126.707 60.9347 126.221 61.182 125.68 61.182C125.241 61.182 124.863 61.0187 124.546 60.692C124.238 60.3653 124.084 59.8707 124.084 59.208C124.084 58.5453 124.243 57.9247 124.56 57.346C124.877 56.758 125.293 56.2913 125.806 55.946C126.329 55.5913 126.87 55.414 127.43 55.414C127.747 55.414 128.027 55.4747 128.27 55.596L128.312 52.334C128.331 51.8953 128.181 51.676 127.864 51.676C127.687 51.676 127.449 51.746 127.15 51.886C127.141 51.8953 127.127 51.9 127.108 51.9C127.071 51.9 127.043 51.8767 127.024 51.83C127.015 51.7833 127.029 51.7507 127.066 51.732L128.9 50.85H128.928C128.956 50.85 128.989 50.864 129.026 50.892C129.063 50.92 129.082 50.9433 129.082 50.962L128.998 59.754C128.998 60.034 129.026 60.2393 129.082 60.37C129.147 60.5007 129.25 60.566 129.39 60.566C129.605 60.566 129.903 60.3513 130.286 59.922ZM126.044 60.496C126.473 60.496 126.851 60.3047 127.178 59.922C127.514 59.53 127.775 59.068 127.962 58.536C128.149 57.9947 128.242 57.5187 128.242 57.108C128.242 56.716 128.135 56.4173 127.92 56.212C127.705 56.0067 127.397 55.904 126.996 55.904C126.585 55.904 126.217 56.016 125.89 56.24C125.563 56.4547 125.307 56.772 125.12 57.192C124.933 57.6027 124.84 58.0927 124.84 58.662C124.849 59.278 124.961 59.74 125.176 60.048C125.391 60.3467 125.68 60.496 126.044 60.496ZM136.804 59.922C136.813 59.9127 136.827 59.908 136.846 59.908C136.874 59.908 136.902 59.9267 136.93 59.964C136.958 59.992 136.967 60.0153 136.958 60.034C136.687 60.4073 136.435 60.6827 136.202 60.86C135.978 61.0373 135.749 61.126 135.516 61.126C134.993 61.126 134.732 60.7573 134.732 60.02L134.76 58.284C134.452 59.152 134.046 59.852 133.542 60.384C133.047 60.916 132.52 61.182 131.96 61.182C131.605 61.182 131.316 61.0607 131.092 60.818C130.877 60.566 130.77 60.1693 130.77 59.628C130.77 58.984 130.924 58.3353 131.232 57.682C131.549 57.0193 131.96 56.478 132.464 56.058C132.968 55.6287 133.481 55.414 134.004 55.414C134.2 55.414 134.391 55.4467 134.578 55.512C134.774 55.5773 134.946 55.6753 135.096 55.806C135.245 55.6567 135.334 55.4933 135.362 55.316C135.371 55.2973 135.404 55.288 135.46 55.288C135.525 55.288 135.553 55.2973 135.544 55.316L135.516 59.754C135.506 60.2953 135.637 60.566 135.908 60.566C136.141 60.566 136.44 60.3513 136.804 59.922ZM132.408 60.496C132.79 60.496 133.159 60.314 133.514 59.95C133.868 59.5767 134.153 59.1193 134.368 58.578C134.592 58.0367 134.704 57.528 134.704 57.052C134.704 56.7067 134.601 56.4313 134.396 56.226C134.2 56.0113 133.938 55.904 133.612 55.904C133.238 55.904 132.893 56.0393 132.576 56.31C132.258 56.5807 132.006 56.954 131.82 57.43C131.633 57.906 131.54 58.438 131.54 59.026C131.54 59.53 131.61 59.9033 131.75 60.146C131.899 60.3793 132.118 60.496 132.408 60.496ZM141.995 55.484C142.154 55.484 142.256 55.4933 142.303 55.512C142.359 55.5213 142.392 55.54 142.401 55.568L142.373 56.632L142.345 61.98C142.326 62.8573 142.088 63.5667 141.631 64.108C141.183 64.6587 140.567 64.934 139.783 64.934C139.288 64.934 138.873 64.8313 138.537 64.626C138.21 64.43 138.047 64.1873 138.047 63.898C138.047 63.73 138.084 63.6087 138.159 63.534C138.234 63.4593 138.327 63.422 138.439 63.422C138.56 63.422 138.658 63.4593 138.733 63.534C138.808 63.6087 138.896 63.7207 138.999 63.87C139.167 64.1127 139.34 64.2993 139.517 64.43C139.694 64.57 139.946 64.64 140.273 64.64C140.674 64.64 140.992 64.472 141.225 64.136C141.458 63.8 141.57 63.1933 141.561 62.316V58.116C141.384 59.0773 141.09 59.8287 140.679 60.37C140.278 60.9113 139.788 61.182 139.209 61.182C138.35 61.182 137.949 60.566 138.005 59.334L138.075 56.842C138.084 56.3007 137.949 56.03 137.669 56.03C137.454 56.03 137.16 56.2493 136.787 56.688C136.768 56.7067 136.75 56.716 136.731 56.716C136.703 56.716 136.68 56.702 136.661 56.674C136.633 56.6367 136.624 56.604 136.633 56.576C136.913 56.2027 137.17 55.9273 137.403 55.75C137.646 55.5633 137.893 55.47 138.145 55.47C138.64 55.47 138.882 55.8433 138.873 56.59L138.789 59.068C138.761 60.1133 139.041 60.636 139.629 60.636C139.984 60.636 140.306 60.4447 140.595 60.062C140.884 59.6793 141.113 59.1333 141.281 58.424C141.458 57.7147 141.556 56.884 141.575 55.932V55.68C141.575 55.624 141.612 55.5773 141.687 55.54C141.762 55.5027 141.864 55.484 141.995 55.484ZM150.706 61.056C150.454 61.056 150.164 61.042 149.838 61.014C149.707 61.0047 149.553 60.9953 149.376 60.986C149.198 60.9767 148.998 60.972 148.774 60.972L147.822 60.986C147.663 60.9953 147.448 61 147.178 61C147.159 61 147.145 60.972 147.136 60.916C147.136 60.86 147.15 60.832 147.178 60.832C147.504 60.832 147.747 60.8087 147.906 60.762C148.064 60.706 148.172 60.6127 148.228 60.482C148.293 60.3513 148.321 60.146 148.312 59.866V53.384C148.302 53.104 148.27 52.8987 148.214 52.768C148.158 52.6373 148.05 52.5487 147.892 52.502C147.742 52.446 147.504 52.418 147.178 52.418C147.159 52.418 147.145 52.39 147.136 52.334C147.136 52.278 147.15 52.25 147.178 52.25L147.836 52.264C148.209 52.2827 148.517 52.292 148.76 52.292C149.068 52.292 149.38 52.278 149.698 52.25C150.09 52.2313 150.36 52.222 150.51 52.222C151.434 52.222 152.255 52.4087 152.974 52.782C153.702 53.146 154.266 53.6547 154.668 54.308C155.069 54.952 155.27 55.6753 155.27 56.478C155.27 57.3833 155.06 58.186 154.64 58.886C154.229 59.5767 153.674 60.1133 152.974 60.496C152.283 60.8693 151.527 61.056 150.706 61.056ZM150.566 60.86C151.284 60.86 151.919 60.7013 152.47 60.384C153.02 60.0667 153.45 59.6047 153.758 58.998C154.066 58.382 154.22 57.6447 154.22 56.786C154.22 55.9927 154.075 55.2647 153.786 54.602C153.496 53.93 153.076 53.398 152.526 53.006C151.984 52.614 151.34 52.418 150.594 52.418C150.062 52.418 149.698 52.4833 149.502 52.614C149.306 52.7447 149.208 53.0107 149.208 53.412V59.712C149.208 60.1227 149.301 60.4167 149.488 60.594C149.674 60.7713 150.034 60.86 150.566 60.86ZM158.701 61.196C158.216 61.196 157.791 61.0793 157.427 60.846C157.072 60.6033 156.797 60.2767 156.601 59.866C156.405 59.4553 156.307 58.9933 156.307 58.48C156.307 57.9013 156.424 57.3787 156.657 56.912C156.89 56.4453 157.212 56.0813 157.623 55.82C158.043 55.5493 158.519 55.414 159.051 55.414C159.76 55.414 160.334 55.652 160.773 56.128C161.221 56.5947 161.445 57.2433 161.445 58.074C161.445 58.7087 161.319 59.264 161.067 59.74C160.815 60.216 160.479 60.58 160.059 60.832C159.639 61.0747 159.186 61.196 158.701 61.196ZM159.121 60.846C159.578 60.846 159.956 60.6547 160.255 60.272C160.554 59.8893 160.703 59.3713 160.703 58.718C160.703 58.214 160.614 57.7333 160.437 57.276C160.269 56.8187 160.026 56.45 159.709 56.17C159.401 55.89 159.051 55.75 158.659 55.75C158.202 55.75 157.819 55.9367 157.511 56.31C157.203 56.6833 157.049 57.1967 157.049 57.85C157.049 58.3447 157.138 58.8253 157.315 59.292C157.492 59.7493 157.74 60.1227 158.057 60.412C158.374 60.7013 158.729 60.846 159.121 60.846ZM163.878 61.154C163.467 61.154 163.103 61.0653 162.786 60.888C162.468 60.7107 162.31 60.5007 162.31 60.258C162.31 60.1367 162.347 60.048 162.422 59.992C162.506 59.9267 162.604 59.894 162.716 59.894C162.818 59.894 162.907 59.9267 162.982 59.992C163.056 60.048 163.14 60.1367 163.234 60.258C163.392 60.454 163.542 60.6033 163.682 60.706C163.831 60.7993 164.032 60.846 164.284 60.846C164.554 60.846 164.76 60.776 164.9 60.636C165.04 60.496 165.11 60.2953 165.11 60.034C165.1 59.6887 164.984 59.3993 164.76 59.166C164.545 58.9327 164.223 58.6807 163.794 58.41C163.364 58.1393 163.038 57.8873 162.814 57.654C162.599 57.4207 162.492 57.136 162.492 56.8C162.492 56.3987 162.674 56.0767 163.038 55.834C163.402 55.582 163.812 55.456 164.27 55.456C164.643 55.456 164.965 55.526 165.236 55.666C165.516 55.7967 165.656 55.9647 165.656 56.17C165.656 56.282 165.618 56.3707 165.544 56.436C165.469 56.5013 165.376 56.534 165.264 56.534C165.142 56.534 165.04 56.5107 164.956 56.464C164.881 56.408 164.783 56.3193 164.662 56.198C164.522 56.058 164.386 55.9507 164.256 55.876C164.125 55.8013 163.957 55.764 163.752 55.764C163.546 55.764 163.383 55.8107 163.262 55.904C163.15 55.9973 163.094 56.142 163.094 56.338C163.094 56.6087 163.196 56.856 163.402 57.08C163.616 57.2947 163.929 57.542 164.34 57.822C164.806 58.1487 165.156 58.4333 165.39 58.676C165.623 58.9187 165.74 59.2127 165.74 59.558C165.74 59.8193 165.66 60.076 165.502 60.328C165.352 60.5707 165.133 60.7713 164.844 60.93C164.564 61.0793 164.242 61.154 163.878 61.154ZM171.19 60.23C171.218 60.23 171.246 60.244 171.274 60.272C171.311 60.3 171.32 60.328 171.302 60.356C170.686 60.8973 170 61.168 169.244 61.168C168.721 61.168 168.273 61.0467 167.9 60.804C167.526 60.5613 167.246 60.2393 167.06 59.838C166.873 59.4367 166.78 59.0073 166.78 58.55C166.78 58.0087 166.906 57.5 167.158 57.024C167.41 56.5387 167.755 56.1513 168.194 55.862C168.642 55.5633 169.146 55.414 169.706 55.414C170.079 55.414 170.368 55.484 170.574 55.624C170.788 55.7547 170.896 55.9367 170.896 56.17C170.886 56.5807 170.569 56.9587 169.944 57.304C169.318 57.64 168.548 57.8733 167.634 58.004C167.652 58.816 167.839 59.4693 168.194 59.964C168.558 60.4493 169.071 60.692 169.734 60.692C169.976 60.692 170.224 60.6547 170.476 60.58C170.728 60.5053 170.956 60.3887 171.162 60.23H171.19ZM169.104 55.792C168.628 55.792 168.268 55.9787 168.026 56.352C167.783 56.7253 167.652 57.2107 167.634 57.808C169.136 57.556 169.888 57.0753 169.888 56.366C169.888 56.1793 169.818 56.0393 169.678 55.946C169.538 55.8433 169.346 55.792 169.104 55.792ZM177.568 61.196C177.083 61.196 176.658 61.0793 176.294 60.846C175.94 60.6033 175.664 60.2767 175.468 59.866C175.272 59.4553 175.174 58.9933 175.174 58.48C175.174 57.9013 175.291 57.3787 175.524 56.912C175.758 56.4453 176.08 56.0813 176.49 55.82C176.91 55.5493 177.386 55.414 177.918 55.414C178.628 55.414 179.202 55.652 179.64 56.128C180.088 56.5947 180.312 57.2433 180.312 58.074C180.312 58.7087 180.186 59.264 179.934 59.74C179.682 60.216 179.346 60.58 178.926 60.832C178.506 61.0747 178.054 61.196 177.568 61.196ZM177.988 60.846C178.446 60.846 178.824 60.6547 179.122 60.272C179.421 59.8893 179.57 59.3713 179.57 58.718C179.57 58.214 179.482 57.7333 179.304 57.276C179.136 56.8187 178.894 56.45 178.576 56.17C178.268 55.89 177.918 55.75 177.526 55.75C177.069 55.75 176.686 55.9367 176.378 56.31C176.07 56.6833 175.916 57.1967 175.916 57.85C175.916 58.3447 176.005 58.8253 176.182 59.292C176.36 59.7493 176.607 60.1227 176.924 60.412C177.242 60.7013 177.596 60.846 177.988 60.846ZM184.103 50.836C184.467 50.836 184.766 50.9107 184.999 51.06C185.232 51.2 185.349 51.368 185.349 51.564C185.349 51.704 185.307 51.8113 185.223 51.886C185.139 51.9513 185.027 51.984 184.887 51.984C184.747 51.984 184.63 51.9467 184.537 51.872C184.453 51.788 184.369 51.6713 184.285 51.522C184.182 51.354 184.089 51.2327 184.005 51.158C183.921 51.0833 183.804 51.046 183.655 51.046C182.964 51.046 182.619 52.068 182.619 54.112C182.619 54.4387 182.624 54.686 182.633 54.854L182.661 55.722C183.09 55.7127 183.613 55.6847 184.229 55.638C184.313 55.638 184.355 55.68 184.355 55.764C184.346 55.8573 184.294 55.96 184.201 56.072C184.117 56.184 184.024 56.2307 183.921 56.212C183.837 56.2027 183.669 56.184 183.417 56.156C183.165 56.1187 182.918 56.0907 182.675 56.072L182.843 61.294C182.852 61.4433 182.857 61.658 182.857 61.938C182.857 62.666 182.806 63.24 182.703 63.66C182.6 64.08 182.432 64.3833 182.199 64.57C181.975 64.7567 181.672 64.85 181.289 64.85C180.934 64.85 180.664 64.7893 180.477 64.668C180.29 64.556 180.197 64.416 180.197 64.248C180.197 64.1173 180.239 64.01 180.323 63.926C180.398 63.8513 180.514 63.814 180.673 63.814C180.832 63.814 180.948 63.8467 181.023 63.912C181.107 63.9867 181.191 64.0987 181.275 64.248C181.34 64.36 181.401 64.444 181.457 64.5C181.513 64.5653 181.592 64.598 181.695 64.598C181.835 64.598 181.933 64.5 181.989 64.304C182.054 64.1173 182.087 63.744 182.087 63.184C182.087 62.8013 182.073 62.2927 182.045 61.658L181.891 56.716C181.872 56.464 181.84 56.2913 181.793 56.198C181.746 56.0953 181.658 56.03 181.527 56.002C181.406 55.9647 181.186 55.946 180.869 55.946C180.832 55.946 180.813 55.918 180.813 55.862C180.813 55.806 180.827 55.778 180.855 55.778C181.228 55.778 181.485 55.736 181.625 55.652C181.765 55.5587 181.835 55.3907 181.835 55.148C181.816 54 181.872 53.1227 182.003 52.516C182.143 51.9 182.372 51.466 182.689 51.214C183.016 50.962 183.487 50.836 184.103 50.836ZM196.965 60.832C196.993 60.832 197.007 60.86 197.007 60.916C197.007 60.972 196.993 61 196.965 61C196.807 61 196.569 60.9907 196.251 60.972C195.878 60.9533 195.589 60.944 195.383 60.944C195.178 60.944 194.907 60.9533 194.571 60.972C194.273 60.9907 194.044 61 193.885 61C193.848 61 193.829 60.972 193.829 60.916C193.829 60.86 193.848 60.832 193.885 60.832C194.221 60.832 194.459 60.7993 194.599 60.734C194.739 60.6687 194.809 60.5567 194.809 60.398C194.809 60.2767 194.763 60.0853 194.669 59.824L193.409 56.38H191.071L189.937 59.152C189.76 59.5907 189.671 59.9313 189.671 60.174C189.671 60.426 189.76 60.5987 189.937 60.692C190.124 60.7853 190.399 60.832 190.763 60.832C190.801 60.832 190.819 60.86 190.819 60.916C190.819 60.972 190.796 61 190.749 61C190.637 61 190.413 60.9907 190.077 60.972C189.685 60.9533 189.387 60.944 189.181 60.944C188.957 60.944 188.696 60.9533 188.397 60.972C188.136 60.9907 187.921 61 187.753 61C187.716 61 187.697 60.972 187.697 60.916C187.697 60.86 187.716 60.832 187.753 60.832C188.052 60.832 188.346 60.7107 188.635 60.468C188.934 60.2253 189.205 59.8287 189.447 59.278L192.471 52.11C192.49 52.082 192.532 52.068 192.597 52.068C192.681 52.068 192.737 52.0867 192.765 52.124L195.593 59.824C195.705 60.1133 195.803 60.3233 195.887 60.454C195.981 60.5847 196.107 60.6827 196.265 60.748C196.424 60.804 196.657 60.832 196.965 60.832ZM191.197 56.086H193.297L192.303 53.384L191.197 56.086ZM200.751 55.456C200.966 55.456 201.171 55.526 201.367 55.666C201.573 55.806 201.675 55.9647 201.675 56.142C201.675 56.2727 201.629 56.3847 201.535 56.478C201.442 56.562 201.335 56.604 201.213 56.604C201.111 56.604 201.027 56.5853 200.961 56.548C200.896 56.5107 200.826 56.4593 200.751 56.394C200.705 56.3473 200.653 56.31 200.597 56.282C200.551 56.2447 200.495 56.226 200.429 56.226C200.215 56.226 200.005 56.492 199.799 57.024C199.594 57.556 199.421 58.1953 199.281 58.942C199.151 59.6793 199.081 60.3327 199.071 60.902C199.071 60.9673 199.029 61.0187 198.945 61.056C198.871 61.0933 198.763 61.112 198.623 61.112C198.483 61.112 198.39 61.1027 198.343 61.084C198.297 61.0747 198.269 61.056 198.259 61.028C198.259 60.9907 198.264 60.888 198.273 60.72C198.283 60.5427 198.287 60.2907 198.287 59.964L198.315 57.374C198.315 56.4687 198.138 56.016 197.783 56.016C197.503 56.016 197.205 56.184 196.887 56.52L196.859 56.534C196.831 56.534 196.808 56.52 196.789 56.492C196.761 56.464 196.752 56.4407 196.761 56.422C196.995 56.1233 197.247 55.89 197.517 55.722C197.797 55.554 198.059 55.47 198.301 55.47C198.563 55.47 198.759 55.6007 198.889 55.862C199.029 56.1233 199.095 56.618 199.085 57.346V58.97C199.225 57.99 199.44 57.1593 199.729 56.478C200.019 55.7967 200.359 55.456 200.751 55.456ZM206.258 60.006C206.286 60.006 206.314 60.0247 206.342 60.062C206.37 60.09 206.374 60.1133 206.356 60.132C205.964 60.496 205.609 60.762 205.292 60.93C204.984 61.0887 204.671 61.168 204.354 61.168C203.999 61.168 203.705 61.0747 203.472 60.888C203.238 60.7013 203.126 60.398 203.136 59.978L203.15 56.716C203.14 56.4733 203.122 56.3007 203.094 56.198C203.066 56.0953 203.005 56.03 202.912 56.002C202.828 55.9647 202.678 55.946 202.464 55.946C202.426 55.946 202.403 55.918 202.394 55.862C202.394 55.806 202.412 55.778 202.45 55.778C202.804 55.778 203.089 55.68 203.304 55.484C203.528 55.2787 203.658 55.0173 203.696 54.7C203.696 54.672 203.733 54.658 203.808 54.658C203.901 54.658 203.948 54.672 203.948 54.7V55.736C204.293 55.7267 204.942 55.694 205.894 55.638C205.931 55.638 205.959 55.652 205.978 55.68C206.006 55.6987 206.02 55.7267 206.02 55.764C206.01 55.8573 205.959 55.96 205.866 56.072C205.782 56.184 205.684 56.2307 205.572 56.212C204.928 56.128 204.386 56.0813 203.948 56.072L203.934 59.544C203.934 59.9267 203.999 60.2067 204.13 60.384C204.27 60.552 204.512 60.636 204.858 60.636C205.119 60.636 205.357 60.5847 205.572 60.482C205.786 60.37 206.01 60.2113 206.244 60.006H206.258Z" fill="#D05656"/>
</svg>
